<?xml version="1.0" encoding="utf-8"?>

<!DOCTYPE svg PUBLIC "-//W3C//DTD SVG 1.1//EN" "http://www.w3.org/Graphics/SVG/1.1/DTD/svg11.dtd">
<svg version="1.1" id="Layer_1" xmlns="http://www.w3.org/2000/svg" xmlns:xlink="http://www.w3.org/1999/xlink" x="0px" y="0px"
	 viewBox="0 0 1826 1640.159" enable-background="new 0 0 1826 1640.159" xml:space="preserve">
<g>
	<path d="M1674.37,385.823c-24.255-14.673-52.567-19.921-79.924-25.528c1.21-49.717,4.747-83.884-18.257-129.894
		c-54.062-108.129-172.776-159.785-288.2-190.518c-66.603-17.734-136.028-19.841-204.579-19.682
		c-183.952-2.675-351.046,39.62-518.234,91.336c-78.252,20.856-194.764,86.573-248.918,88.354
		c-29.061,1.607-96.205-1.837-104.776-30.618c-3.291-22.26,17.411-62.768-39.137-47.634
		C104.509,139.794,52.349,214.017,28.41,275.241c-9.344,23.898-7.714,51.771,3.778,74.635
		c18.172,26.403,48.273,42.586,79.328,48.591c52.448,11.173,106.048,16.701,159.49,20.001
		c-37.626,72.307-37.679,86.538-33.163,149.43c-17.655,2.346-35.628,2.346-53.084-1.392c-58.689-8.229-40.606-91.098-38.411-118.852
		c-21.393-0.398-37.377,15.349-51.175,29.624c-42.07,39.803-66.644,101.873-50.778,159.172
		c25.431,81.836,98.167,157.791,207.962,165.733c109.82-3.783,132.857-54.93,152.412-73.323
		c9.623,51.135,37.497,97.062,43.7,148.953c-9.384,0.915-18.768,1.869-27.914,4.294c-0.239,2.505-0.716,7.515-0.954,10.02
		c8.708,10.02,19.365,18.013,30.498,25.21c-37.7,102.545-157.105,155.899-176.429,187.285c-4.175,17.734,1.591,36.224,9.822,51.891
		c15.468,29.027,51.374,39.445,66.524,68.671c7.157,13.599,3.937,29.027,0.517,43.143c8.549-7.316,13.44-18.053,11.094-29.385
		c0-55.983-86.243-70.804-84.02-135.792c66.96-42.992,156.167-105.596,175.992-182.593c27.039,12.724,55.987,19.961,84.099,29.743
		c2.465,16.064-10.537,26.681-17.933,39.167c23.142,7.515,46.602-5.288,64.416-19.245c13.241-11.094,29.663-20.677,36.065-37.656
		c-0.593-10.084-8.475-12.654-86.326-40.439c6.998-19.882,19.484-37.139,27.397-56.583c-17.893,13.003-25.767,35.548-43.183,48.63
		c-21.074-1.074-41.871-5.885-63.064-5.487c-7.212-115.646-92.643-171.208,16.382-410.992
		c26.244-49.784,54.237-99.527,91.932-141.676c8.072,14.911,13.36,31.532,24.216,44.853c21.75,29.067,53.044,48.312,82.111,69.148
		c76.245,51.947,196.582,90.578,354.728,88.712c-14.474,10.418-31.453,17.536-43.779,30.817
		c-24.017,26.005-47.875,54.396-57.06,89.348c-7.356,28.033,3.141,58.213,23.102,78.532c66.45,66.45,194.023,67.594,287.965,61.514
		c32.765-2.426,65.689-0.676,98.295,2.783c36.945,3.57,145.891,34.294,154.838,109.428c-18.007-23.587-53.485-90.582-189.829-86.048
		c-103.121,0.676-209.612,41.652-324.547-14.991c-36.9-16.462-70.262-46.921-79.725-87.439c-6.004-19.325-2.545-39.564-2.943-59.366
		c-48.44,36.831-90.613,173.417,0.04,273.293c82.513,85.599,250.451,88.565,344.826,17.655c5.448-5.567,10.736,1.113,13.599,5.567
		c8.828,13.48,11.531,29.862,14.673,45.37c11.464,63.365-32.408,162.025-81.236,192.017c-5.96,3.576-12.238,8.304-19.587,6.763
		c-102.658-21.517-214.718,45.885-252.453,140.58c-12.275,30.807-17.429,65.095-12.493,98.022c2.429,16.2,7.343,32.06,15.091,46.525
		c8.371,15.626,24.608,36.956,43.378,39.189c32.201,3.826,58.121-28.373,79.348-47.641c29.675-26.937,68.162-44.535,102.699-64.422
		c53.142-30.601,106.704-62.429,162.643-87.67c40.772-18.397,83.003-33.388,125.702-46.673
		c34.854-10.834,78.459-7.82,106.594-32.808c42.175-37.458,88.944-73.057,123.86-117.533
		c30.845-39.265,56.094-82.754,76.375-128.333c40.784-91.656,62.063-191.713,68.171-291.613c0.799-13.074,1.322-26.164,1.575-39.26
		C1805.664,553.415,1769.229,443.882,1674.37,385.823z"/>
	<path d="M615.355,682.575c50.449,16.964,97.487,68.455,105.015,93.722c-11.173-4.612-17.536-15.269-26.204-23.023
		c-14.991-14.792-33.719-24.772-51.374-35.866c-14.156-6.322-31.811-20.836-46.921-9.742c-29.027,19.007-60.003,34.713-88.99,53.8
		c-17.297,10.06-35.111,20.637-55.191,23.818c0.318-5.646-0.915-11.81,2.267-16.86C481.887,715.763,569.15,668.204,615.355,682.575z
		"/>
	<path d="M352.362,1175.241c25.285-20.13,74.468-3.518,63.144,23.898c-13.042-4.851-23.699-14.713-37.417-17.854
		C369.539,1179.099,360.831,1177.548,352.362,1175.241z"/>
	<path d="M340.194,1271.309c50.261,3.539,91.376,36.185,133.445,60.52c13.082,8.867,28.51,12.366,43.143,17.575
		c-6.64,25.926-13.639,53.8-32.725,73.681c-25.453,23.264-71.96,26.361-76.425-13.559c-0.398-15.667,6.322-30.141,12.088-44.336
		C364.592,1361.132,327.826,1322.632,340.194,1271.309z"/>
	<path d="M446.322,1553.151c-0.119-23.222,3.817-46.602,11.452-68.512c-3.499,30.021-13.042,64.814,6.283,91.495
		c35.238,36.368,146.96,21.875,193.846,8.191c64.337-16.343,127.521-39.167,184.7-73.283c9.106-6.004,19.564-9.623,30.538-9.464
		c-22.811,34.116-213.415,153.169-380.534,108.673C466.919,1603.412,447.117,1579.912,446.322,1553.151z"/>
</g>
</svg>
